<?xml version="1.0" encoding="utf-8"?>
<!-- Generator: Adobe Illustrator 19.2.1, SVG Export Plug-In . SVG Version: 6.00 Build 0)  -->
<!DOCTYPE svg PUBLIC "-//W3C//DTD SVG 1.0//EN" "http://www.w3.org/TR/2001/REC-SVG-20010904/DTD/svg10.dtd" [
    <!ENTITY ns_flows "http://ns.adobe.com/Flows/1.0/">
    <!ENTITY ns_extend "http://ns.adobe.com/Extensibility/1.0/">
    <!ENTITY ns_ai "http://ns.adobe.com/AdobeIllustrator/10.0/">
    <!ENTITY ns_graphs "http://ns.adobe.com/Graphs/1.0/">
    <!ENTITY ns_vars "http://ns.adobe.com/Variables/1.0/">
    <!ENTITY ns_imrep "http://ns.adobe.com/ImageReplacement/1.0/">
    <!ENTITY ns_sfw "http://ns.adobe.com/SaveForWeb/1.0/">
    <!ENTITY ns_custom "http://ns.adobe.com/GenericCustomNamespace/1.0/">
    <!ENTITY ns_adobe_xpath "http://ns.adobe.com/XPath/1.0/">
]>
<svg version="1.1" id="Capa_1" xmlns:x="&ns_extend;" xmlns:i="&ns_ai;" xmlns:graph="&ns_graphs;"
	 xmlns="http://www.w3.org/2000/svg" xmlns:xlink="http://www.w3.org/1999/xlink" x="0px" y="0px" width="500px" height="500px"
	 viewBox="0 0 500 500" enable-background="new 0 0 500 500" xml:space="preserve">
<metadata>
	<sfw  xmlns="&ns_sfw;">
		<slices></slices>
		<sliceSourceBounds  bottomLeftOrigin="true" height="304.492" width="500" x="0" y="-394.238"></sliceSourceBounds>
	</sfw>
</metadata>
<g>
	<path fill="#2A813C" d="M158.401,224.726l-16.103-26.234l-11.082-18.047c-10.152,6.253-19.784,13.153-28.837,20.611l13.407,16.374
		l19.532,23.812l8.635,10.544c6.779-5.578,13.973-10.742,21.576-15.446L158.401,224.726z"/>
	<path fill="#224E2A" d="M175.255,252.197c-6.862,4.262-13.376,8.939-19.488,13.991l-11.814-14.402
		c6.779-5.578,13.973-10.742,21.576-15.446L175.255,252.197z"/>
	<path fill="#A3C029" d="M338.833,204.138l-4.51,12.83l-6.172,17.589c6.037,2.041,11.965,4.411,17.745,7.059l7.965-16.831
		l5.824-12.285C352.885,209.315,345.919,206.548,338.833,204.138z"/>
	<path fill="#5F6F4D" d="M191.351,278.411c-5.671,3.505-11.055,7.38-16.113,11.543l-19.471-23.766
		c6.112-5.051,12.626-9.729,19.488-13.991L191.351,278.411z"/>
	<path fill="#C3CB5C" d="M345.896,241.615l-13.164,27.774c-4.822-2.223-9.747-4.163-14.78-5.84l10.199-28.992
		C334.187,236.597,340.116,238.968,345.896,241.615z"/>
	<path fill="#8ECAEF" d="M440.545,345.409l-28.98,10.231c-9.548-27.045-26.095-49.645-46.902-66.457l19.279-23.921
		C409.057,285.51,429.018,312.759,440.545,345.409z"/>
	<path fill="#224E2A" d="M205.746,301.839c-4.599,2.857-8.946,5.984-13.067,9.369l-17.44-21.253
		c5.058-4.163,10.441-8.038,16.113-11.543L205.746,301.839z"/>
	<path fill="#A3C029" d="M332.732,269.389l-11.77,24.859c-3.959-1.81-7.994-3.391-12.105-4.744l9.095-25.956
		C322.985,265.226,327.909,267.166,332.732,269.389z"/>
	<path fill="#74BAE8" d="M411.565,355.64l-25.928,9.154c-7.795-22.079-21.271-40.492-38.224-54.201l17.25-21.41
		C385.47,305.995,402.017,328.595,411.565,355.64z"/>
	<path fill="#848B72" d="M216.456,319.277c-3.812,2.355-7.398,4.967-10.8,7.783l-12.977-15.853
		c4.121-3.384,8.468-6.511,13.067-9.369L216.456,319.277z"/>
	<path fill="#D3DE83" d="M320.962,294.248l-8.759,18.457c-3.304-1.48-6.686-2.799-10.13-3.915l6.784-19.286
		C312.968,290.857,317.003,292.438,320.962,294.248z"/>
	<path fill="#A8D6F4" d="M385.637,364.794l-19.267,6.802c-6.478-18.349-17.679-33.685-31.755-45.09l12.798-15.913
		C364.365,324.302,377.842,342.715,385.637,364.794z"/>
	<path fill="#224E2A" d="M231.195,343.301c-2.693,1.713-5.249,3.558-7.655,5.574l-17.885-21.814c3.402-2.816,6.989-5.428,10.8-7.783
		L231.195,343.301z"/>
	<path fill="#A3C029" d="M312.202,312.705l-12.073,25.527c-2.401-1.082-4.859-2.008-7.388-2.82l9.331-26.622
		C305.517,309.906,308.898,311.225,312.202,312.705z"/>
	<path fill="#76BAE7" d="M366.37,371.596l-26.606,9.393c-4.661-13.203-12.737-24.26-22.85-32.51l17.701-21.973
		C348.691,337.911,359.892,353.246,366.37,371.596z"/>
	<path fill="#9E9F8F" d="M237.69,353.883c-2.237,1.351-4.378,2.847-6.383,4.474l-7.767-9.483c2.406-2.016,4.963-3.861,7.655-5.574
		L237.69,353.883z"/>
	<path fill="#DBE5AB" d="M300.13,338.232l-5.824,12.285c-1.983-0.915-3.99-1.709-6.035-2.355l4.471-12.749
		C295.271,336.223,297.729,337.15,300.13,338.232z"/>
	<path fill="#CCDEF3" d="M339.764,380.989l-13.203,4.661c-3.767-10.671-10.207-19.635-18.314-26.396l8.667-10.776
		C327.027,356.729,335.102,367.785,339.764,380.989z"/>
	<path fill="#76BAE7" d="M326.56,385.65l-20.204,7.133c-2.394-6.781-6.501-12.442-11.66-16.699l13.551-16.829
		C316.354,366.015,322.793,374.98,326.56,385.65z"/>
	<path fill="#A3C029" d="M294.305,350.516l-9.366,19.726c-1.287-0.532-2.62-1.004-3.958-1.362l7.288-20.719
		C290.315,348.807,292.322,349.601,294.305,350.516z"/>
	<path fill="#248636" d="M288.27,348.161l-7.288,20.719c-2.609-0.784-5.307-1.244-8.039-1.424l2.742-22.031
		C279.975,345.886,284.199,346.794,288.27,348.161z"/>
	<path fill="#287037" d="M275.685,345.426l-2.742,22.031c-1.078-0.068-2.189-0.102-3.272-0.056l-0.052-22.322l0.02-0.007
		C271.659,345.076,273.674,345.194,275.685,345.426z"/>
	<path fill="#224E2A" d="M249.729,373.499c-1.309,0.866-2.558,1.778-3.731,2.775l-14.692-17.917
		c2.005-1.627,4.146-3.124,6.383-4.474L249.729,373.499z"/>
	<path fill="#1676BB" d="M252.066,372.113c-0.808,0.442-1.583,0.918-2.337,1.386l-12.039-19.616c1.33-0.806,2.722-1.567,4.134-2.267
		L252.066,372.113z"/>
	<path fill="#74BAE8" d="M372.874,184.672l-13.19,27.827c15.856,7.3,30.824,16.595,44.498,27.626l-8.53,10.593l-11.711,14.542
		c25.115,20.248,45.076,47.498,56.603,80.147l17.571-6.203l12.824-4.528L500,324.418
		C477.278,260.057,430.251,211.229,372.874,184.672z"/>
	<path fill="#65A540" d="M359.685,212.5l-5.824,12.285l-7.965,16.831c13.583,6.263,26.387,14.192,38.046,23.646l11.711-14.542
		l8.53-10.593C390.509,229.095,375.541,219.799,359.685,212.5z"/>
	<path fill="#7EB168" d="M383.942,265.261l-19.279,23.921c-9.78-7.942-20.533-14.576-31.931-19.793l13.164-27.774
		C359.479,247.878,372.282,255.807,383.942,265.261z"/>
	<path fill="#69A73F" d="M364.663,289.182l-17.25,21.41c-8.11-6.58-17.004-12.076-26.451-16.345l11.77-24.859
		C344.129,274.607,354.883,281.24,364.663,289.182z"/>
	<path fill="#9CC492" d="M347.413,310.592l-12.798,15.913c-6.875-5.558-14.409-10.188-22.413-13.8l8.759-18.457
		C330.409,298.517,339.303,304.012,347.413,310.592z"/>
	<path fill="#66A937" d="M334.615,326.505l-17.701,21.973c-5.124-4.158-10.764-7.617-16.784-10.247l12.073-25.527
		C320.207,316.317,327.741,320.947,334.615,326.505z"/>
	<path fill="#B2CDA3" d="M316.914,348.479l-8.667,10.776c-4.237-3.551-8.931-6.492-13.941-8.738l5.824-12.285
		C306.15,340.862,311.79,344.321,316.914,348.479z"/>
	<path fill="#66A937" d="M308.247,359.255l-13.551,16.829c-2.966-2.43-6.259-4.385-9.756-5.842l9.366-19.726
		C299.315,352.763,304.01,355.704,308.247,359.255z"/>
	<path fill="#5DB1E4" d="M165.384,107.841c-12.964,4.577-25.453,9.928-37.428,15.973l13.369,26.75l9.458,18.912
		c10.105-5.115,20.649-9.623,31.598-13.488c39.351-13.893,79.806-17.924,118.646-13.378l-2.633,21.005l-3.809,30.572
		c15.142,1.72,29.966,5.077,44.247,9.95l10.198-29.059l7.006-19.992l7-19.945l9.919-28.198
		C307.965,84.556,235.251,83.175,165.384,107.841z"/>
	<path fill="#248636" d="M317.952,263.548l-9.095,25.956c-8.237-2.745-16.772-4.621-25.485-5.538l3.419-27.294
		C297.434,257.85,307.898,260.167,317.952,263.548z"/>
	<path fill="#8FB584" d="M308.857,289.504l-6.784,19.286c-6.877-2.26-13.988-3.787-21.246-4.522l2.545-20.301
		C292.084,284.883,300.62,286.759,308.857,289.504z"/>
	<path fill="#248636" d="M302.072,308.79l-9.331,26.622c-4.978-1.585-10.135-2.658-15.395-3.134l3.48-28.011
		C288.084,305.003,295.195,306.529,302.072,308.79z"/>
	<path fill="#A8C896" d="M292.741,335.412l-4.471,12.749c-4.071-1.366-8.295-2.275-12.585-2.735l1.661-13.148
		C282.606,332.754,287.763,333.827,292.741,335.412z"/>
	<path fill="#69875C" d="M290.581,226.174l-3.79,30.498c-5.717-0.628-11.503-0.941-17.315-0.885l-0.06-30.731
		C276.525,224.991,283.596,225.388,290.581,226.174z"/>
	<path fill="#257239" d="M286.79,256.673l-3.419,27.294c-4.571-0.495-9.204-0.721-13.86-0.692l-0.036-27.487
		C275.288,255.731,281.073,256.044,286.79,256.673z"/>
	<path fill="#287037" d="M280.826,304.268l-3.48,28.011c-2.56-0.262-5.151-0.357-7.739-0.318l-0.042-28.203
		C273.337,303.704,277.1,303.878,280.826,304.268z"/>
	<path fill="#B3BDA5" d="M277.347,332.278l-1.661,13.148c-2.011-0.232-4.027-0.35-6.047-0.355l-0.031-13.111
		C272.196,331.921,274.787,332.016,277.347,332.278z"/>
	<path fill="#224E2A" d="M269.388,206.426l0.027,18.63c-6.923,0.022-13.9,0.466-20.882,1.338l-2.179-18.499
		C254.051,206.95,261.749,206.453,269.388,206.426z"/>
	
		<line fill="none" stroke="#FFFFFF" stroke-width="0.5194" stroke-miterlimit="10" x1="269.388" y1="206.426" x2="269.381" y2="206.406"/>
	<path fill="#1868B0" d="M182.382,155.988c-10.95,3.866-21.493,8.373-31.598,13.488l9.458,18.912l13.772,27.573l6.095,12.181
		c7.697-3.929,15.744-7.375,24.101-10.326c13.941-4.922,28.059-8.201,42.144-9.921l-1.59-13.525
		c16.768-2.062,33.472-2.082,49.821-0.183l3.809-30.572l2.633-21.005C262.188,138.064,221.733,142.095,182.382,155.988z"/>
	<path fill="#244D8D" d="M246.354,207.896l2.179,18.499c-12.75,1.563-25.521,4.524-38.127,8.974
		c-7.619,2.69-14.962,5.843-21.97,9.438l-8.328-16.664c7.697-3.929,15.744-7.375,24.101-10.326
		C218.152,212.895,232.269,209.616,246.354,207.896z"/>
	<path fill="#5F6F4D" d="M269.415,225.056l0.06,30.731c-5.753,0.035-11.546,0.398-17.339,1.142l-3.602-30.535
		C255.515,225.522,262.492,225.078,269.415,225.056z"/>
	<path fill="#224E2A" d="M269.475,255.787l0.036,27.487c-4.695,0.043-9.433,0.347-14.152,0.959l-3.224-27.304
		C257.929,256.185,263.723,255.822,269.475,255.787z"/>
	<path fill="#869F7A" d="M283.372,283.966l-2.545,20.301c-3.726-0.389-7.489-0.564-11.261-0.511l-0.053-20.483
		C274.167,283.246,278.801,283.472,283.372,283.966z"/>
	<path fill="#848B72" d="M269.512,283.274l0.053,20.483c-3.92,0.016-7.842,0.279-11.794,0.777l-2.412-20.301
		C260.079,283.621,264.817,283.317,269.512,283.274z"/>
	<path fill="#224E2A" d="M269.565,303.757l0.042,28.203c-2.843,0.017-5.689,0.214-8.539,0.592l-3.297-28.018
		C261.723,304.036,265.645,303.773,269.565,303.757z"/>
	<path fill="#9E9F8F" d="M269.608,331.96l0.031,13.111l-0.02,0.007c-2.342-0.026-4.674,0.102-7.024,0.371l-1.525-12.898
		C263.919,332.174,266.765,331.977,269.608,331.96z"/>
	<path fill="#225429" d="M269.618,345.078l0.052,22.322c-1.471,0.026-2.954,0.146-4.436,0.332l-2.641-22.283
		C264.944,345.181,267.277,345.052,269.618,345.078z"/>
	<path fill="#244D8D" d="M262.594,345.449l2.641,22.283l-0.02,0.007c-2.475,0.358-4.98,0.951-7.434,1.817
		c-1.994,0.704-3.913,1.561-5.715,2.556l-10.242-20.497c2.281-1.164,4.678-2.19,7.151-3.063
		C253.483,346.961,258.054,345.931,262.594,345.449z"/>
	<path fill="#95ADD3" d="M261.069,332.552l1.525,12.898c-4.54,0.481-9.111,1.512-13.619,3.103c-2.473,0.873-4.87,1.899-7.151,3.063
		l-5.616-11.207l0.02-0.007c3.102-1.633,6.348-3.049,9.759-4.253C250.973,334.389,256.023,333.19,261.069,332.552z"/>
	<path fill="#244D8D" d="M257.772,304.534l3.297,28.018c-5.046,0.638-10.096,1.837-15.082,3.597
		c-3.411,1.204-6.657,2.619-9.759,4.253l-0.02,0.007l-12.607-25.225c4.137-2.133,8.472-4.023,12.999-5.621
		C243.601,307.091,250.69,305.441,257.772,304.534z"/>
	<path fill="#798CBF" d="M255.36,284.233l2.412,20.301c-7.082,0.908-14.17,2.558-21.171,5.029
		c-4.527,1.598-8.863,3.488-12.999,5.621l-9.133-18.309c4.899-2.515,9.998-4.719,15.323-6.599
		C238.248,287.291,246.809,285.3,255.36,284.233z"/>
	<path fill="#244D8D" d="M252.136,256.929l3.224,27.304c-8.551,1.067-17.112,3.058-25.568,6.044
		c-5.325,1.88-10.424,4.084-15.323,6.599L202.181,272.3c5.88-3.041,12.055-5.691,18.457-7.952
		C231.049,260.673,241.602,258.225,252.136,256.929z"/>
	<path fill="#526EAD" d="M248.533,226.394l3.602,30.535c-10.533,1.296-21.087,3.743-31.498,7.419
		c-6.402,2.26-12.577,4.911-18.457,7.952l-13.744-27.493c7.007-3.595,14.351-6.749,21.97-9.438
		C223.012,230.918,235.784,227.957,248.533,226.394z"/>
	<path fill="#5DB1E4" d="M174.014,215.961l-13.772-27.573l-9.458-18.912c-6.717,3.403-13.255,7.057-19.568,10.968l11.082,18.047
		l16.103,26.234l7.129,11.615c4.712-2.919,9.573-5.668,14.579-8.198L174.014,215.961z"/>
	<path fill="#1676BB" d="M188.437,244.807c-4.536,2.274-8.927,4.767-13.182,7.39l-9.725-15.857
		c4.712-2.919,9.573-5.668,14.579-8.198L188.437,244.807z"/>
	<path fill="#4F83C3" d="M202.181,272.3c-3.733,1.879-7.343,3.916-10.83,6.111l-16.096-26.214c4.255-2.624,8.646-5.116,13.182-7.39
		L202.181,272.3z"/>
	<path fill="#1676BB" d="M214.468,296.875c-2.996,1.551-5.911,3.208-8.723,4.964l-14.395-23.428
		c3.487-2.195,7.097-4.233,10.83-6.111L214.468,296.875z"/>
	<path fill="#749FCE" d="M223.602,315.184c-2.466,1.274-4.837,2.627-7.146,4.093l-10.71-17.438c2.812-1.755,5.726-3.412,8.723-4.964
		L223.602,315.184z"/>
	<path fill="#1676BB" d="M236.208,340.409c-1.724,0.9-3.399,1.873-5.013,2.891l-14.74-24.024c2.309-1.466,4.68-2.819,7.146-4.093
		L236.208,340.409z"/>
	<path fill="#B4BFDD" d="M241.824,351.616c-1.413,0.7-2.804,1.461-4.134,2.267l-6.495-10.582c1.614-1.019,3.29-1.991,5.013-2.891
		L241.824,351.616z"/>
	<path fill="#2A813C" d="M155.767,266.188c-17.434,14.342-31.818,31.735-42.629,51.051l-16.178-9.227
		c11.934-21.283,27.785-40.427,46.993-56.226L155.767,266.188z"/>
	<path fill="#678658" d="M175.239,289.954c-14.486,11.956-26.446,26.429-35.415,42.515l-26.686-15.23
		c10.811-19.316,25.195-36.709,42.629-51.051L175.239,289.954z"/>
	<path fill="#2A813C" d="M192.679,311.207c-11.855,9.815-21.64,21.681-28.946,34.915l-23.909-13.653
		c8.968-16.086,20.928-30.559,35.415-42.515L192.679,311.207z"/>
	<path fill="#8D9C7D" d="M205.655,327.06c-9.917,8.189-18.09,18.14-24.197,29.179l-17.725-10.117
		c7.306-13.234,17.091-25.1,28.946-34.915L205.655,327.06z"/>
	<path fill="#2A813C" d="M223.54,348.874c-7.24,5.988-13.172,13.264-17.585,21.349l-24.497-13.984
		c6.107-11.039,14.28-20.99,24.197-29.179L223.54,348.874z"/>
	<path fill="#A3BB9B" d="M231.307,358.357c-6.209,4.906-11.293,10.963-15.074,17.726l-10.278-5.859
		c4.413-8.085,10.346-15.361,17.585-21.349L231.307,358.357z"/>
	<path fill="#2A813C" d="M245.999,376.274c-3.843,3.219-6.972,7.127-9.256,11.522l-20.51-11.713
		c3.781-6.763,8.865-12.82,15.074-17.726L245.999,376.274z"/>
	<path fill="#A3C029" d="M236.743,387.796c-1.094,2.046-1.973,4.196-2.663,6.435l-0.02,0.007l-22.44-7.779
		c1.194-3.607,2.745-7.093,4.614-10.377L236.743,387.796z"/>
	<path fill="#DCE6A7" d="M216.233,376.083c-1.869,3.284-3.42,6.77-4.614,10.377l-11.031-3.799c1.396-4.306,3.202-8.465,5.367-12.437
		L216.233,376.083z"/>
	<path fill="#A3C029" d="M205.955,370.223c-2.164,3.972-3.971,8.131-5.367,12.437l-26.674-9.223
		c1.982-5.949,4.503-11.706,7.544-17.198L205.955,370.223z"/>
	<path fill="#CFDD98" d="M181.458,356.239c-3.041,5.492-5.561,11.25-7.544,17.198l-19.317-6.683
		c2.409-7.154,5.458-14.084,9.135-20.631L181.458,356.239z"/>
	<path fill="#A3C029" d="M163.733,346.122c-3.678,6.547-6.726,13.478-9.135,20.631l-25.987-8.994
		c2.963-8.762,6.707-17.217,11.214-25.291L163.733,346.122z"/>
	<path fill="#BFCE70" d="M139.824,332.469c-4.507,8.074-8.251,16.528-11.214,25.291l-29.05-10.044
		c3.58-10.573,8.123-20.767,13.578-30.477L139.824,332.469z"/>
	<path fill="#A3C029" d="M135.319,241.241l-19.532-23.812l-13.407-16.374c9.053-7.458,18.685-14.358,28.837-20.611l-11.075-18.027
		C62.826,197.793,21.037,251.732,0,313.307l19.977,6.899l20.011,6.932l29.097,10.05l12.876,4.449l17.601,6.078
		c3.58-10.573,8.123-20.767,13.578-30.477l-16.178-9.227c11.934-21.283,27.785-40.427,46.993-56.226L135.319,241.241z"/>
	<path fill="#29833E" d="M294.586,194.188l-4.005,31.987c0,0,25.442,4.274,37.57,8.382l6.172-17.589l4.51-12.83
		c-6.799-2.32-16.926-5.197-25.908-7.04C303.039,195.07,294.586,194.188,294.586,194.188z"/>
	<path fill="#6C9B62" d="M328.151,234.556l-10.199,28.992c-10.054-3.382-20.517-5.699-31.161-6.876l3.79-30.498
		C303.43,227.627,316.023,230.449,328.151,234.556z"/>
	<path fill="#257239" d="M244.765,194.37l1.59,13.525c7.697-0.945,15.394-1.442,23.033-1.47l0.027,18.63
		c7.11-0.065,14.181,0.332,21.166,1.119l2.317-18.471l1.688-13.516C278.236,192.288,261.533,192.309,244.765,194.37z"/>
</g>
</svg>
